# xmcd CD database file
#
# Track frame offsets:
#	187
#	20557
#	40692
#	61020
#
# Disc length: 1081 seconds
#
# Revision: 0
# Processed by: cddbd v1.5.1PL0 Copyright (c) Steve Scherf et al.
# Submitted via: CDex 1.50
#
DISCID=26043704
DTITLE=桃田佳世子 - メタルファイターMIKU　風になるまで
DYEAR=1994
DGENRE=Anime
TTITLE0=風になるまで
TTITLE1=瞳は１０００カラット
TTITLE2=風になるまで（カラオケ）
TTITLE3=瞳は１０００カラット（カラオケ）
EXTD=YEAR: 1994
EXTT0=
EXTT1=
EXTT2=
EXTT3=
PLAYORDER=
